<?xml version="1.0" encoding="UTF-8"?>
<svg width="200" height="400" viewBox="0 0 200 400" xmlns="http://www.w3.org/2000/svg">
  <!-- Buddha Silhouette -->
  <path d="M100,50 
           C130,50 150,70 150,100 
           C150,120 140,130 130,140 
           C125,145 120,150 120,160 
           L120,180 
           C120,190 130,200 130,220 
           L130,250 
           C130,270 120,280 100,280 
           C80,280 70,270 70,250 
           L70,220 
           C70,200 80,190 80,180 
           L80,160 
           C80,150 75,145 70,140 
           C60,130 50,120 50,100 
           C50,70 70,50 100,50 Z" 
        fill="#232931" opacity="0.7"/>
  
  <!-- Base -->
  <path d="M70,280 L130,280 L140,320 L60,320 Z" fill="#232931" opacity="0.7"/>
  <ellipse cx="100" cy="320" rx="40" ry="10" fill="#232931" opacity="0.7"/>
</svg>
